HIERARCHY
ROOT Hips
{
	OFFSET 0 0 0
	CHANNELS 6 Xposition Yposition Zposition Yrotation Xrotation Zrotation
	JOINT Spine
	{
		OFFSET -0 8.46208 -2.69729
		CHANNELS 3 Yrotation Xrotation Zrotation
		JOINT Spine1
		{
			OFFSET -0 8.80071 0
			CHANNELS 3 Yrotation Xrotation Zrotation
			JOINT Spine2
			{
				OFFSET -0 8.80071 0
				CHANNELS 3 Yrotation Xrotation Zrotation
				JOINT Spine3
				{
					OFFSET -0 8.80071 0
					CHANNELS 3 Yrotation Xrotation Zrotation
					JOINT Neck
					{
						OFFSET -0 20.1555 3.69729
						CHANNELS 3 Yrotation Xrotation Zrotation
						JOINT Head
						{
							OFFSET -0 10.5776 0
							CHANNELS 3 Yrotation Xrotation Zrotation
							End Site
							{
								OFFSET 0 15 0
							}
						}
					}
					JOINT LeftShoulder
					{
						OFFSET 1.76293 7.4903 3.52587
						CHANNELS 3 Yrotation Xrotation Zrotation
						JOINT LeftArm
						{
							OFFSET 15.2073 0 0
							CHANNELS 3 Yrotation Xrotation Zrotation
							JOINT LeftForeArm
							{
								OFFSET 24.6661 0 0
								CHANNELS 3 Yrotation Xrotation Zrotation
								JOINT LeftHand
								{
									OFFSET 23.4971 0 0
									CHANNELS 3 Yrotation Xrotation Zrotation
									End Site
									{
										OFFSET 15 0 0
									}
								}
							}
						}
					}
					JOINT RightShoulder
					{
						OFFSET -1.76293 7.4903 3.52587
						CHANNELS 3 Yrotation Xrotation Zrotation
						JOINT RightArm
						{
							OFFSET -15.2073 0 0
							CHANNELS 3 Yrotation Xrotation Zrotation
							JOINT RightForeArm
							{
								OFFSET -24.6661 0 0
								CHANNELS 3 Yrotation Xrotation Zrotation
								JOINT RightHand
								{
									OFFSET -23.4971 0 0
									CHANNELS 3 Yrotation Xrotation Zrotation
									End Site
									{
										OFFSET -15 0 0
									}
								}
							}
						}
					}
				}
			}
		}
	}
	JOINT LeftUpLeg
	{
		OFFSET 10.5776 -3.52587 2
		CHANNELS 3 Yrotation Xrotation Zrotation
		JOINT LeftLeg
		{
			OFFSET -0 -40.2075 2.46811
			CHANNELS 3 Yrotation Xrotation Zrotation
			JOINT LeftFoot
			{
				OFFSET -0 -40.4039 -2.46811
				CHANNELS 3 Yrotation Xrotation Zrotation
				JOINT LeftToeBase
				{
					OFFSET -0 -6.80669 15.8664
					CHANNELS 3 Yrotation Xrotation Zrotation
					End Site
					{
						OFFSET 0 0 5
					}
				}
			}
		}
	}
	JOINT RightUpLeg
	{
		OFFSET -10.5776 -3.52587 2
		CHANNELS 3 Yrotation Xrotation Zrotation
		JOINT RightLeg
		{
			OFFSET -0 -40.2075 2.46811
			CHANNELS 3 Yrotation Xrotation Zrotation
			JOINT RightFoot
			{
				OFFSET -0 -40.4039 -2.46811
				CHANNELS 3 Yrotation Xrotation Zrotation
				JOINT RightToeBase
				{
					OFFSET -0 -6.80669 15.8664
					CHANNELS 3 Yrotation Xrotation Zrotation
					End Site
					{
						OFFSET 0 0 5
					}
				}
			}
		}
	}
}
MOTION
Frames: 17
Frame Time: 0.00833333
0 94.504799 0 0 0 0 0 0 0 0 0 0 0 0 0 0 0 0 0 0 0 0 0 0 0 0 0 0 0 0 0 0 0 0 0 0 0 0 0 0 0 0 0 0 0 0 0 0 0 0 0 0 0 0 0 0 0 0 0 0 0 0 0 0 0 0 0 0 0 0 0 0
-70.549646 92.577844 -5.221619 -2.044702 -1.797867 0.778135 0.041984 1.261161 -0.145461 -0.080008 1.720722 -0.150525 -0.275634 2.038652 -0.149916 -0.395248 2.245227 -0.147595 -14.745788 1.744737 -6.244536 -6.024336 11.823232 -2.454673 8.224156 8.105450 -4.131282 -27.624193 8.270473 -56.575236 -18.952374 1.272890 6.610121 1.935331 9.033131 -15.896709 -5.470934 3.097849 -2.496979 26.392898 10.178497 56.775459 19.487330 -5.057017 2.880084 -5.619993 5.250307 12.240181 10.076125 1.522045 10.937417 0.000000 5.559851 0.000000 14.447851 3.233616 -9.812417 0.000000 -2.651482 0.000000 -9.885975 0.759795 -13.819599 0.000000 4.999215 0.000000 -12.529102 3.336979 12.266727 0.000000 -2.509187 0.000000
-70.555383 92.578143 -5.217460 -2.043294 -1.797553 0.782006 0.032893 1.263793 -0.166501 -0.088225 1.722080 -0.153113 -0.266715 2.024503 -0.137563 -0.386272 2.242766 -0.130576 -14.756279 1.733020 -6.254031 -6.027001 11.823454 -2.447344 8.216138 8.099543 -4.135870 -27.610472 8.296329 -56.588553 -18.949002 1.251265 6.632155 1.967953 8.998628 -15.931775 -5.466834 3.101277 -2.495232 26.386780 10.184375 56.754781 19.476298 -5.029034 2.892886 -5.612897 5.167654 12.239594 10.079540 1.519888 10.937917 0.000000 5.563208 0.000000 14.450165 3.242222 -9.826020 0.000000 -2.673244 0.000000 -9.887125 0.762324 -13.817377 0.000000 5.003133 0.000000 -12.536526 3.325362 12.220927 0.000000 -2.509435 0.000000
-70.555896 92.578290 -5.214047 -2.032840 -1.799957 0.777074 0.034954 1.249309 -0.141547 -0.086971 1.748840 -0.156165 -0.276754 2.021006 -0.157104 -0.396251 2.240041 -0.141508 -14.758093 1.687167 -6.237787 -6.028883 11.856834 -2.448659 8.223661 8.103390 -4.098780 -27.613269 8.280655 -56.590240 -18.916591 1.234101 6.616434 1.939920 9.037043 -15.931984 -5.458833 3.092826 -2.491843 26.395820 10.176229 56.768284 19.466471 -5.020931 2.883334 -5.608557 5.123168 12.236540 10.066589 1.524484 10.943586 0.000000 5.561757 0.000000 14.444822 3.235529 -9.814578 0.000000 -2.673865 0.000000 -9.899691 0.760283 -13.817154 0.000000 5.018106 0.000000 -12.523610 3.335911 12.269413 0.000000 -2.558065 0.000000
-70.560455 92.578650 -5.208181 -2.025732 -1.798672 0.780573 0.024315 1.272871 -0.164195 -0.094683 1.719955 -0.151389 -0.271366 2.002034 -0.137648 -0.389188 2.237204 -0.137623 -14.758187 1.689455 -6.251324 -6.028059 11.861523 -2.453886 8.189640 8.092806 -4.107872 -27.545526 8.322147 -56.599050 -18.909230 1.292616 6.612246 1.926127 8.987536 -15.984384 -5.464568 3.093064 -2.477560 26.411225 10.223563 56.730138 19.493006 -5.040812 2.904751 -5.630850 5.074184 12.189893 10.067978 1.523243 10.943313 0.000000 5.567858 0.000000 14.434198 3.228989 -9.822176 0.000000 -2.638398 0.000000 -9.921804 0.760462 -13.819080 0.000000 5.017327 0.000000 -12.511552 3.314878 12.251645 0.000000 -2.505507 0.000000
-70.561139 92.577771 -5.204922 -2.024199 -1.798469 0.781847 0.031146 1.271954 -0.159317 -0.087717 1.717323 -0.149783 -0.269273 1.993588 -0.138104 -0.387216 2.239849 -0.138414 -14.798441 1.668142 -6.266763 -6.042228 11.895645 -2.445664 8.175875 8.106587 -4.102620 -27.562055 8.331416 -56.594838 -18.898157 1.305598 6.625309 1.912734 8.987802 -16.001949 -5.470990 3.096348 -2.492670 26.398317 10.222516 56.727645 19.497437 -5.060595 2.912598 -5.612791 5.054531 12.187259 10.074141 1.521984 10.943297 0.000000 5.567300 0.000000 14.435185 3.237013 -9.842996 0.000000 -2.660110 0.000000 -9.928268 0.760790 -13.816643 0.000000 5.020246 0.000000 -12.517120 3.309069 12.228464 0.000000 -2.506665 0.000000
-70.565460 92.579816 -5.199901 -2.017008 -1.796153 0.779503 0.024628 1.263826 -0.160204 -0.093997 1.717937 -0.151609 -0.278147 1.998989 -0.141167 -0.394990 2.221040 -0.143432 -14.793714 1.650197 -6.246415 -6.043159 11.936552 -2.459904 8.183925 8.095863 -4.096684 -27.504930 8.357391 -56.585526 -18.896575 1.332080 6.612638 1.905834 8.950582 -16.024253 -5.444559 3.105617 -2.460630 26.375676 10.220857 56.678975 19.489669 -5.045385 2.942743 -5.604800 5.025167 12.204910 10.058855 1.526455 10.947168 0.000000 5.555350 0.000000 14.435941 3.245952 -9.813138 0.000000 -2.672224 0.000000 -9.929134 0.761087 -13.818141 0.000000 5.023121 0.000000 -12.506992 3.330495 12.266473 0.000000 -2.580678 0.000000
-70.570062 92.578882 -5.196197 -2.013933 -1.795076 0.784433 0.032955 1.257354 -0.165874 -0.085530 1.717432 -0.154176 -0.289210 1.993937 -0.141327 -0.405399 2.220834 -0.150136 -14.812890 1.630010 -6.228520 -6.053408 11.991085 -2.469504 8.199506 8.086010 -4.082219 -27.544800 8.396981 -56.559533 -18.888754 1.292069 6.578838 1.923878 8.887095 -16.040107 -5.440786 3.087015 -2.460816 26.391787 10.242913 56.688407 19.493535 -5.063578 2.940716 -5.593655 4.998214 12.215788 10.074087 1.523957 10.944740 0.000000 5.557970 0.000000 14.423150 3.249172 -9.800506 0.000000 -2.676555 0.000000 -9.923308 0.768531 -13.815511 0.000000 5.024071 0.000000 -12.525591 3.293627 12.238181 0.000000 -2.493186 0.000000
-70.570239 92.580237 -5.191447 -2.003654 -1.791988 0.780405 0.023514 1.256581 -0.162821 -0.094045 1.704414 -0.147762 -0.283217 1.983019 -0.135481 -0.398944 2.213673 -0.146809 -14.835870 1.634687 -6.269479 -6.055809 12.025506 -2.448344 8.159084 8.096997 -4.108691 -27.467175 8.416888 -56.531236 -18.906766 1.261541 6.548752 1.919834 8.877497 -16.019183 -5.431628 3.098018 -2.474796 26.383843 10.254610 56.675514 19.485434 -5.146618 2.946320 -5.600918 5.056679 12.188360 10.058985 1.532617 10.951226 0.000000 5.541667 0.000000 14.423686 3.246978 -9.837888 0.000000 -2.651847 0.000000 -9.922537 0.767733 -13.816934 0.000000 5.027755 0.000000 -12.526123 3.320146 12.284500 0.000000 -2.562156 0.000000
-70.576385 92.578558 -5.186179 -1.990431 -1.786800 0.786978 0.023105 1.268048 -0.167794 -0.093214 1.690067 -0.149636 -0.297595 1.948001 -0.136824 -0.412514 2.210238 -0.162916 -14.844376 1.662550 -6.249560 -6.063986 12.058166 -2.472806 8.182402 8.112792 -4.107314 -27.450417 8.457566 -56.486181 -18.933156 1.225956 6.535275 1.935810 8.884259 -16.042493 -5.425851 3.135761 -2.475207 26.426017 10.253736 56.706302 19.494241 -5.037954 2.871384 -5.593847 4.958908 12.236802 10.056272 1.535627 10.947357 0.000000 5.527574 0.000000 14.414574 3.249582 -9.819887 0.000000 -2.641689 0.000000 -9.934309 0.774062 -13.815788 0.000000 5.022293 0.000000 -12.546037 3.291377 12.256395 0.000000 -2.509625 0.000000
-70.576202 92.579675 -5.181012 -1.983570 -1.786908 0.784103 0.008423 1.269457 -0.163773 -0.106980 1.671694 -0.152117 -0.282414 1.953319 -0.143505 -0.397614 2.195022 -0.155155 -14.865963 1.682706 -6.256786 -6.070236 12.101516 -2.460469 8.177482 8.112249 -4.118379 -27.425784 8.480798 -56.486004 -18.933650 1.247666 6.557833 1.931107 8.812427 -16.038624 -5.427918 3.116839 -2.468323 26.383602 10.272812 56.676284 19.503310 -4.998924 2.890789 -5.610107 4.974906 12.262865 10.067124 1.537186 10.948878 0.000000 5.521671 0.000000 14.404689 3.249482 -9.818871 0.000000 -2.657824 0.000000 -9.923769 0.776562 -13.815628 0.000000 5.028848 0.000000 -12.545399 3.308158 12.260765 0.000000 -2.580457 0.000000
-70.577490 92.578326 -5.178185 -1.974954 -1.785080 0.785671 0.006729 1.263930 -0.152864 -0.108502 1.671298 -0.156287 -0.293818 1.942615 -0.157794 -0.408848 2.177329 -0.166827 -14.880805 1.715824 -6.255718 -6.074817 12.141215 -2.450620 8.180474 8.120130 -4.120135 -27.376448 8.512102 -56.439435 -18.949562 1.205332 6.523345 1.951989 8.768773 -16.014061 -5.412332 3.132442 -2.454578 26.381968 10.280539 56.650997 19.517831 -4.980245 2.891377 -5.585590 5.032673 12.299766 10.076812 1.534272 10.949167 0.000000 5.517078 0.000000 14.388645 3.248092 -9.800860 0.000000 -2.668281 0.000000 -9.920896 0.781863 -13.817750 0.000000 5.027291 0.000000 -12.553035 3.301850 12.250203 0.000000 -2.589699 0.000000
-70.578497 92.578290 -5.173716 -1.978439 -1.784315 0.791083 0.002243 1.273422 -0.161709 -0.111651 1.659166 -0.152682 -0.290379 1.919541 -0.149478 -0.404690 2.167326 -0.172388 -14.907519 1.727774 -6.280463 -6.081497 12.216585 -2.444451 8.182193 8.121172 -4.151691 -27.335704 8.539971 -56.406480 -18.928347 1.229354 6.526764 1.932766 8.728178 -16.011109 -5.410803 3.126884 -2.439796 26.412832 10.353041 56.587420 19.552141 -5.093195 2.944108 -5.583149 5.088459 12.310051 10.077681 1.535893 10.947408 0.000000 5.524453 0.000000 14.380663 3.244316 -9.832379 0.000000 -2.656090 0.000000 -9.925303 0.783663 -13.818465 0.000000 5.027443 0.000000 -12.565443 3.276704 12.244852 0.000000 -2.521472 0.000000
-70.579553 92.578741 -5.168661 -1.961014 -1.781195 0.788249 0.006316 1.259585 -0.151730 -0.107644 1.660001 -0.150436 -0.306768 1.914851 -0.153721 -0.420745 2.158510 -0.183333 -14.929490 1.705977 -6.320869 -6.074280 12.346566 -2.367579 8.191321 8.118771 -4.178515 -27.308098 8.582822 -56.351860 -18.935545 1.238949 6.511719 1.968709 8.636394 -15.995845 -5.391865 3.126916 -2.437581 26.384496 10.361122 56.562484 19.556344 -5.124577 2.982996 -5.557889 5.031624 12.268419 10.056671 1.541741 10.948264 0.000000 5.509354 0.000000 14.386380 3.244980 -9.804904 0.000000 -2.643526 0.000000 -9.924074 0.787477 -13.816048 0.000000 5.031924 0.000000 -12.587854 3.278631 12.250478 0.000000 -2.535365 0.000000
-70.581677 92.578406 -5.164315 -1.954262 -1.780150 0.784131 0.004094 1.263628 -0.133678 -0.109136 1.643203 -0.153491 -0.310971 1.895535 -0.171327 -0.425955 2.154818 -0.195225 -14.965244 1.739114 -6.319115 -6.085070 12.423443 -2.341360 8.193349 8.140762 -4.187098 -27.254586 8.573893 -56.294325 -18.911682 1.220486 6.493627 1.960731 8.717898 -15.999854 -5.374704 3.111709 -2.420083 26.406390 10.429068 56.535968 19.572848 -5.181914 3.022517 -5.544467 4.933412 12.196243 10.060525 1.541300 10.956979 0.000000 5.509880 0.000000 14.375857 3.243002 -9.858498 0.000000 -2.652356 0.000000 -9.930114 0.786372 -13.814813 0.000000 5.039578 0.000000 -12.575019 3.287831 12.280389 0.000000 -2.570029 0.000000
-70.581409 92.578815 -5.157893 -1.942573 -1.776452 0.786212 0.007795 1.255392 -0.135342 -0.105126 1.639448 -0.147682 -0.322629 1.879928 -0.163828 -0.437078 2.144963 -0.205643 -15.003841 1.721740 -6.354785 -6.090912 12.558972 -2.309245 8.187209 8.172689 -4.228628 -27.200877 8.589724 -56.224884 -18.899564 1.326674 6.481952 1.966411 8.593319 -16.009786 -5.378709 3.127245 -2.422561 26.434782 10.446461 56.485839 19.563262 -5.215081 3.073598 -5.548354 4.941792 12.164319 10.054000 1.542683 10.954004 0.000000 5.501915 0.000000 14.368040 3.254362 -9.826761 0.000000 -2.652072 0.000000 -9.925631 0.794734 -13.815382 0.000000 5.034172 0.000000 -12.601741 3.270332 12.271413 0.000000 -2.549633 0.000000
-70.579791 92.578467 -5.154875 -1.938931 -1.776787 0.783154 0.013313 1.264291 -0.128218 -0.098522 1.613461 -0.143498 -0.331187 1.868224 -0.164636 -0.445804 2.148797 -0.214322 -15.042706 1.733584 -6.380133 -6.096481 12.638038 -2.256405 8.189091 8.175786 -4.249791 -27.197507 8.605201 -56.190011 -18.857023 1.280860 6.511240 1.927295 8.777702 -16.074179 -5.349438 3.116261 -2.423888 26.394998 10.450568 56.452981 19.533104 -5.190350 3.097245 -5.560170 4.911338 12.225414 10.062074 1.542086 10.953698 0.000000 5.501052 0.000000 14.362815 3.249342 -9.820127 0.000000 -2.654390 0.000000 -9.913612 0.797464 -13.819781 0.000000 5.041661 0.000000 -12.593788 3.289513 12.313390 0.000000 -2.586788 0.000000
